<svg xmlns="http://www.w3.org/2000/svg" xmlns:xlink="http://www.w3.org/1999/xlink" id="Calque_1" x="0px" y="0px" viewBox="0 0 512 512" style="enable-background:new 0 0 512 512;" xml:space="preserve"><style type="text/css">	.st0{fill-rule:evenodd;clip-rule:evenodd;fill:#163680;}	.st1{fill-rule:evenodd;clip-rule:evenodd;fill:#8AC751;}</style><path id="path14" class="st0" d="M295.3,221.5L153.4,62.6c-18.2,10.4-34.6,23.4-49,38.8c-14.3,15.3-26.2,32.7-35.6,52.1 c-9.3,19.4-15.4,40.3-18.4,62.7c-3.5,28.7-1.5,56.1,5.9,82.2c7.4,26.2,19.2,49.9,35.6,71.2c16.3,21.3,36.2,38.8,59.7,52.7 c23.4,13.9,49.5,22.8,78.1,26.7c23.4,2.9,46.2,2,68.1-2.6l75.7,58.4L125.6,221.7L295.3,221.5"></path><path id="path16" class="st1" d="M462.4,269.7c3.5-28.7,1.5-56.1-5.9-82.2c-7.4-26.2-19.2-49.9-35.6-71.2 c-16.3-21.3-36.3-38.8-59.9-52.5c-23.4-13.9-49.4-22.8-77.9-26.7c-29.8-3.6-58.3-1.4-85.5,6.7L127.8,7.1l281,258.7l-183.6-2.2 l123.3,165.6c20.1-10,38.2-22.9,54.3-38.8c15.9-15.8,29-33.9,39.3-54.3C452.4,315.7,459.2,293.5,462.4,269.7"></path></svg>