<?xml version="1.0" encoding="UTF-8"?>
<svg viewBox="0 0 345.33 205.33" xml:space="preserve" xmlns="http://www.w3.org/2000/svg"><g transform="matrix(1.3333 0 0 -1.3333 0 205.33)"><g transform="scale(.1)"><path d="m1356.4 1046-327 365.97c-41.988-23.98-79.64-53.83-113-89.49-33.012-35.31-60.32-75.31-82-120-21.32-44.65-35.5-92.81-42.5-144.49-8-66.022-3.512-129.18 13.52-189.49 16.992-60.36 44.34-115 81.992-164.03 37.656-48.976 83.476-89.488 137.5-121.48 53.99-31.992 113.99-52.5 180-61.492 53.99-6.68 106.33-4.68 156.99 5.98l174.5-134.49-570.98 652.5 390.98 0.51" fill="#26599e" fill-rule="evenodd"/><path d="m1741.4 935c8 66.02 3.51 129.18-13.48 189.49-17.03 60.35-44.34 115-82.03 164.03-37.66 48.98-83.63 89.33-137.97 120.97-54.02 32.03-113.87 52.5-179.53 61.53-68.63 8.32-134.34 3.16-196.99-15.51l-160.98 84.49 647.5-595.98-423.01 5 283.99-381.52c46.32 23.012 88 52.852 125 89.488 36.68 36.371 66.83 78.012 90.5 125 23.99 47.032 39.65 98.012 47 153.01" fill="#8ac751" fill-rule="evenodd"/><path d="m122.77 93.398c58.32 0 87.5 32.973 87.5 98.903 0 65.078-29.18 97.66-87.5 97.66-59.61 0-89.372-32.582-89.372-97.66 0-65.93 29.762-98.903 89.372-98.903zm-122.81 97.973c0 82.809 40.937 124.22 122.81 124.22 80.511 0 120.78-41.41 120.78-124.22 0-82.422-40.27-123.6-120.78-123.6-81.872 0-122.81 41.18-122.81 123.6zm317.66-85.32c12.5-6.1721 26.328-9.2112 41.559-9.2112 37.269 0 55.941 22.379 55.941 67.18 0 39.07-18.562 58.601-55.633 58.601-15.937 0-29.918-1.371-41.867-4.07zm-31.57 135.47c23.828 4.89 48.48 7.351 73.91 7.351 57.5 0 86.25-28.402 86.25-85.16 0-62.813-28.981-94.223-86.871-94.223-14.379 0-28.289 2.8515-41.719 8.6015v-73.602h-31.57z" fill="#8bc754"/><path d="m489.1 277.93h19.847l6.871-29.059h41.719v-25.633h-36.879v-102.97c0-16.79 7.231-25.149 21.719-25.149h15.16v-25.633h-23.277c-30.121 0-45.16 16.133-45.16 48.442z" fill="#8bc754"/><path d="m632.07 288.24h-31.559v25.633h31.559zm0-218.75h-31.559v179.38h31.559z" fill="#8bc754"/><path d="m683.24 69.488v179.38h21.41l5.622-22.82c21.761 15.199 43.64 22.82 65.628 22.82 41.332 0 62.032-22.269 62.032-66.723v-112.66h-31.559v113.13c0 26.641-13.281 40-39.851 40-18.122 0-35.391-7.582-51.719-22.66v-130.47z" fill="#8bc754"/><path d="m1032.9 150.12h-120.78c0-36.68 23.121-55 69.371-55 15.821 0 31.64 1.7187 47.5 5.1489v-25.622c-15.86-3.4375-35.109-5.1601-57.808-5.1601-60.551 0-90.781 30.551-90.781 91.723 0 58.437 28.668 87.66 86.089 87.66 54.89 0 77.04-32.93 66.41-98.75zm-120.78 26.399h91.871c1.57 31.449-12.652 47.191-42.652 47.191-30.859 0-47.269-15.742-49.219-47.191z" fill="#8bc754"/><path d="m1159.3 95.121c35.93 0 53.9 21.598 53.9 64.84 0 42.187-17.97 63.277-53.9 63.277-35.86 0-53.75-21.09-53.75-63.277 0-43.242 17.89-64.84 53.75-64.84zm-85.47 64.059c0 59.769 28.47 89.691 85.47 89.691 56.95 0 85.46-29.922 85.46-89.691 0-59.692-28.51-89.532-85.46-89.532-56.68 0-85.16 29.84-85.47 89.532z" fill="#8bc754"/><path d="m1592.4 312.38v-25.617h-128.28v-82.032h122.19v-25.628h-122.19v-85.473h130.78v-25.617h-162.34v244.37zm49.34-244.37v179.37h21.4l5.63-22.809c21.76 15.2 43.63 22.809 65.63 22.809 41.32 0 62.03-22.258 62.03-66.719v-112.65h-31.57v113.12c0 26.641-13.28 40-39.84 40-18.12 0-35.39-7.578-51.72-22.649v-130.47z" fill="#275ba0"/><path d="m1991.4 148.63h-120.78c0-36.68 23.12-55 69.37-55 15.82 0 31.64 1.7227 47.5 5.1602v-25.629c-15.86-3.4297-35.12-5.1485-57.81-5.1485-60.55 0-90.78 30.539-90.78 91.718 0 58.43 28.67 87.649 86.09 87.649 54.88 0 77.03-32.93 66.41-98.75zm-120.78 26.41h91.87c1.56 31.441-12.66 47.191-42.66 47.191-30.85 0-47.26-15.75-49.21-47.191z" fill="#275ba0"/><path d="m2040.9 68.012v179.37h21.4l5.63-22.809c15.7 15.2 34.61 22.809 56.72 22.809v-26.25c-21.49 0-38.87-7.578-52.19-22.649v-130.47z" fill="#275ba0"/><path d="m2276.4 217.07c-10.86 2.7-24.22 4.059-40.16 4.059-38.24 0-57.34-20.699-57.34-62.027 0-42.5 18.04-63.75 54.21-63.75 16.45 0 30.86 3.0468 43.29 9.2184zm31.56-149.06c0-43.32-27.5-65-82.5-65-22.11 0-41.68 2.8867-58.75 8.5899v25.629c17.38-5.711 37.07-8.6016 59.06-8.6016 33.75 0 50.63 13.133 50.63 39.383v8.5899c-13.44-5.7422-27.93-8.5899-43.44-8.5899-56.8 0-85.16 30.227-85.16 90.777 0 59.063 29.92 88.59 89.85 88.59 24.25 0 47.69-2.457 70.31-7.34z" fill="#275ba0"/><path d="m2391 286.76h-31.562v25.617h31.562zm0-218.75h-31.562v179.37h31.562z" fill="#275ba0"/><path d="m2586.1 148.63h-120.78c0-36.68 23.13-55 69.38-55 15.82 0 31.64 1.7227 47.5 5.1602v-25.629c-15.86-3.4297-35.12-5.1485-57.81-5.1485-60.55 0-90.79 30.539-90.79 91.718 0 58.43 28.68 87.649 86.1 87.649 54.88 0 77.03-32.93 66.4-98.75zm-120.78 26.41h91.88c1.56 31.441-12.66 47.191-42.66 47.191-30.86 0-47.26-15.75-49.22-47.191z" fill="#275ba0"/></g></g></svg>
